SA-Beginner-Regular.ufo
<glyph name="exclam" format="2">
  <advance width="227"/>
  <unicode hex="0021"/>
  <outline>
    <contour>
      <point x="98" y="175" type="curve" smooth="yes"/>
      <point x="110" y="174"/>
      <point x="124" y="183"/>
      <point x="126" y="202" type="curve" smooth="yes"/>
      <point x="172" y="629" type="line" smooth="yes"/>
      <point x="174" y="643"/>
      <point x="163" y="650"/>
      <point x="151" y="650" type="curve" smooth="yes"/>
      <point x="138" y="650"/>
      <point x="123" y="643"/>
      <point x="121" y="629" type="curve" smooth="yes"/>
      <point x="75" y="202" type="line" smooth="yes"/>
      <point x="73" y="185"/>
      <point x="86" y="176"/>
    </contour>
    <contour>
      <point x="83" y="-1" type="curve" smooth="yes"/>
      <point x="106" y="-1"/>
      <point x="123" y="17"/>
      <point x="123" y="40" type="curve" smooth="yes"/>
      <point x="123" y="62"/>
      <point x="106" y="79"/>
      <point x="83" y="79" type="curve" smooth="yes"/>
      <point x="60" y="79"/>
      <point x="43" y="62"/>
      <point x="43" y="40" type="curve" smooth="yes"/>
      <point x="43" y="17"/>
      <point x="60" y="-1"/>
    </contour>
  </outline>
</glyph>
<glyph name="quotedbl" format="2">
  <advance width="292"/>
  <unicode hex="0022"/>
  <outline>
    <contour>
      <point x="110" y="500" type="curve" smooth="yes"/>
      <point x="122" y="500"/>
      <point x="135" y="508"/>
      <point x="137" y="524" type="curve" smooth="yes"/>
      <point x="148" y="620" type="line" smooth="yes"/>
      <point x="150" y="640"/>
      <point x="137" y="650"/>
      <point x="124" y="650" type="curve" smooth="yes"/>
      <point x="112" y="650"/>
      <point x="98" y="641"/>
      <point x="96" y="624" type="curve" smooth="yes"/>
      <point x="86" y="528" type="line" smooth="yes"/>
      <point x="84" y="510"/>
      <point x="97" y="500"/>
    </contour>
    <contour>
      <point x="219" y="500" type="curve" smooth="yes"/>
      <point x="231" y="500"/>
      <point x="245" y="507"/>
      <point x="247" y="526" type="curve" smooth="yes"/>
      <point x="256" y="620" type="line" smooth="yes"/>
      <point x="257" y="640"/>
      <point x="245" y="650"/>
      <point x="231" y="650" type="curve" smooth="yes"/>
      <point x="219" y="650"/>
      <point x="207" y="642"/>
      <point x="205" y="628" type="curve" smooth="yes"/>
      <point x="194" y="528" type="line" smooth="yes"/>
      <point x="192" y="509"/>
      <point x="205" y="500"/>
    </contour>
  </outline>
</glyph>
<glyph name="parenright" format="2">
  <advance width="354"/>
  <unicode hex="0029"/>
  <outline>
    <contour>
      <point x="4" y="-296" type="curve" smooth="yes"/>
      <point x="13" y="-304"/>
      <point x="31" y="-301"/>
      <point x="49" y="-283" type="curve" smooth="yes"/>
      <point x="171" y="-157"/>
      <point x="256" y="20"/>
      <point x="269" y="150" type="curve" smooth="yes"/>
      <point x="284" y="286"/>
      <point x="249" y="444"/>
      <point x="139" y="632" type="curve" smooth="yes"/>
      <point x="129" y="648"/>
      <point x="117" y="654"/>
      <point x="106" y="647" type="curve" smooth="yes"/>
      <point x="96" y="641"/>
      <point x="96" y="627"/>
      <point x="105" y="610" type="curve" smooth="yes"/>
      <point x="199" y="437"/>
      <point x="233" y="286"/>
      <point x="218" y="150" type="curve" smooth="yes"/>
      <point x="205" y="27"/>
      <point x="123" y="-140"/>
      <point x="14" y="-257" type="curve" smooth="yes"/>
      <point x="-2" y="-275"/>
      <point x="-3" y="-289"/>
    </contour>
  </outline>
</glyph>
<glyph name="slash" format="2">
  <advance width="274"/>
  <unicode hex="002F"/>
  <outline>
    <contour>
      <point x="14" y="-39" type="curve" smooth="yes"/>
      <point x="25" y="-39"/>
      <point x="36" y="-33"/>
      <point x="41" y="-19" type="curve" smooth="yes"/>
      <point x="268" y="616" type="line" smooth="yes"/>
      <point x="276" y="637"/>
      <point x="260" y="650"/>
      <point x="245" y="650" type="curve" smooth="yes"/>
      <point x="234" y="650"/>
      <point x="223" y="644"/>
      <point x="217" y="627" type="curve" smooth="yes"/>
      <point x="-10" y="-8" type="line" smooth="yes"/>
      <point x="-17" y="-27"/>
      <point x="-2" y="-39"/>
    </contour>
  </outline>
</glyph>
<glyph name="two" format="2">
  <advance width="415"/>
  <unicode hex="0032"/>
  <outline>
    <contour>
      <point x="332" y="25" type="curve" smooth="yes"/>
      <point x="332" y="37"/>
      <point x="325" y="50"/>
      <point x="305" y="50" type="curve" smooth="yes"/>
      <point x="65" y="50" type="line"/>
      <point x="71" y="26" type="line"/>
      <point x="141" y="115"/>
      <point x="269" y="263"/>
      <point x="303" y="306" type="curve" smooth="yes"/>
      <point x="353" y="369"/>
      <point x="378" y="421"/>
      <point x="378" y="463" type="curve" smooth="yes"/>
      <point x="378" y="522"/>
      <point x="324" y="568"/>
      <point x="251" y="568" type="curve" smooth="yes"/>
      <point x="188" y="568"/>
      <point x="118" y="539"/>
      <point x="76" y="503" type="curve" smooth="yes"/>
      <point x="54" y="484"/>
      <point x="58" y="471"/>
      <point x="67" y="461" type="curve" smooth="yes"/>
      <point x="75" y="452"/>
      <point x="91" y="449"/>
      <point x="115" y="469" type="curve" smooth="yes"/>
      <point x="149" y="498"/>
      <point x="207" y="518"/>
      <point x="254" y="518" type="curve" smooth="yes"/>
      <point x="297" y="518"/>
      <point x="328" y="500"/>
      <point x="328" y="468" type="curve" smooth="yes"/>
      <point x="328" y="429"/>
      <point x="294" y="374"/>
      <point x="261" y="332" type="curve" smooth="yes"/>
      <point x="237" y="301"/>
      <point x="91" y="128"/>
      <point x="18" y="35" type="curve" smooth="yes"/>
      <point x="7" y="21"/>
      <point x="18" y="0"/>
      <point x="36" y="0" type="curve" smooth="yes"/>
      <point x="308" y="0" type="line" smooth="yes"/>
      <point x="328" y="0"/>
      <point x="332" y="13"/>
    </contour>
  </outline>
</glyph>
<glyph name="three" format="2">
  <advance width="433"/>
  <unicode hex="0033"/>
  <outline>
    <contour>
      <point x="20" y="69" type="curve" smooth="yes"/>
      <point x="13" y="58"/>
      <point x="17" y="45"/>
      <point x="30" y="34" type="curve" smooth="yes"/>
      <point x="56" y="12"/>
      <point x="105" y="-1"/>
      <point x="158" y="-1" type="curve" smooth="yes"/>
      <point x="278" y="-1"/>
      <point x="359" y="58"/>
      <point x="369" y="154" type="curve" smooth="yes"/>
      <point x="377" y="238"/>
      <point x="325" y="298"/>
      <point x="227" y="315" type="curve"/>
      <point x="226" y="307" type="line"/>
      <point x="319" y="321"/>
      <point x="366" y="367"/>
      <point x="373" y="436" type="curve" smooth="yes"/>
      <point x="383" y="526"/>
      <point x="297" y="568"/>
      <point x="220" y="568" type="curve" smooth="yes"/>
      <point x="165" y="568"/>
      <point x="107" y="549"/>
      <point x="83" y="533" type="curve" smooth="yes"/>
      <point x="71" y="525"/>
      <point x="66" y="510"/>
      <point x="72" y="500" type="curve" smooth="yes"/>
      <point x="79" y="489"/>
      <point x="96" y="489"/>
      <point x="110" y="496" type="curve" smooth="yes"/>
      <point x="133" y="507"/>
      <point x="178" y="522"/>
      <point x="218" y="522" type="curve" smooth="yes"/>
      <point x="278" y="522"/>
      <point x="330" y="500"/>
      <point x="323" y="437" type="curve" smooth="yes"/>
      <point x="313" y="353"/>
      <point x="219" y="330"/>
      <point x="124" y="330" type="curve" smooth="yes"/>
      <point x="113" y="330"/>
      <point x="104" y="321"/>
      <point x="104" y="308" type="curve" smooth="yes"/>
      <point x="104" y="296"/>
      <point x="113" y="287"/>
      <point x="124" y="287" type="curve" smooth="yes"/>
      <point x="232" y="287"/>
      <point x="329" y="259"/>
      <point x="319" y="153" type="curve" smooth="yes"/>
      <point x="312" y="86"/>
      <point x="250" y="45"/>
      <point x="156" y="45" type="curve" smooth="yes"/>
      <point x="118" y="45"/>
      <point x="80" y="55"/>
      <point x="57" y="71" type="curve" smooth="yes"/>
      <point x="42" y="81"/>
      <point x="28" y="81"/>
    </contour>
  </outline>
</glyph>
<glyph name="four" format="2">
  <advance width="414"/>
  <unicode hex="0034"/>
  <outline>
    <contour>
      <point x="192" y="0" type="curve" smooth="yes"/>
      <point x="204" y="0"/>
      <point x="217" y="6"/>
      <point x="219" y="26" type="curve" smooth="yes"/>
      <point x="255" y="358" type="line" smooth="yes"/>
      <point x="257" y="375"/>
      <point x="248" y="387"/>
      <point x="233" y="387" type="curve" smooth="yes"/>
      <point x="220" y="387"/>
      <point x="207" y="382"/>
      <point x="205" y="365" type="curve" smooth="yes"/>
      <point x="169" y="31" type="line" smooth="yes"/>
      <point x="167" y="11"/>
      <point x="179" y="0"/>
    </contour>
    <contour>
      <point x="53" y="196" type="curve" smooth="yes"/>
      <point x="333" y="196" type="line" smooth="yes"/>
      <point x="349" y="196"/>
      <point x="357" y="207"/>
      <point x="357" y="219" type="curve" smooth="yes"/>
      <point x="357" y="231"/>
      <point x="345" y="241"/>
      <point x="329" y="241" type="curve" smooth="yes"/>
      <point x="56" y="241" type="line"/>
      <point x="83" y="211" type="line"/>
      <point x="118" y="540" type="line" smooth="yes"/>
      <point x="120" y="558"/>
      <point x="107" y="568"/>
      <point x="95" y="568" type="curve" smooth="yes"/>
      <point x="83" y="568"/>
      <point x="70" y="562"/>
      <point x="68" y="544" type="curve" smooth="yes"/>
      <point x="33" y="219" type="line" smooth="yes"/>
      <point x="32" y="208"/>
      <point x="41" y="196.0"/>
    </contour>
  </outline>
</glyph>
<glyph name="five" format="2">
  <advance width="405"/>
  <unicode hex="0035"/>
  <outline>
    <contour>
      <point x="137" y="-1" type="curve" smooth="yes"/>
      <point x="266" y="-1"/>
      <point x="346" y="76"/>
      <point x="346" y="213" type="curve" smooth="yes"/>
      <point x="346" y="300"/>
      <point x="284" y="350.0"/>
      <point x="183" y="350.0" type="curve" smooth="yes"/>
      <point x="150" y="350"/>
      <point x="125" y="344"/>
      <point x="76" y="329" type="curve"/>
      <point x="102" y="312" type="line"/>
      <point x="129" y="553" type="line"/>
      <point x="96" y="523" type="line"/>
      <point x="331" y="523" type="line" smooth="yes"/>
      <point x="351" y="523"/>
      <point x="358" y="533"/>
      <point x="358" y="545" type="curve" smooth="yes"/>
      <point x="358" y="557"/>
      <point x="350" y="568"/>
      <point x="330" y="568" type="curve" smooth="yes"/>
      <point x="110" y="568" type="line"/>
      <point x="90" y="568"/>
      <point x="80" y="560"/>
      <point x="78" y="541" type="curve" smooth="yes"/>
      <point x="53" y="310" type="line" smooth="yes"/>
      <point x="51" y="295"/>
      <point x="66" y="282"/>
      <point x="81" y="286" type="curve"/>
      <point x="126" y="299"/>
      <point x="151" y="304"/>
      <point x="176" y="304" type="curve" smooth="yes"/>
      <point x="250" y="304"/>
      <point x="296" y="265"/>
      <point x="296" y="201" type="curve" smooth="yes"/>
      <point x="296" y="107"/>
      <point x="234" y="45"/>
      <point x="151" y="45" type="curve" smooth="yes"/>
      <point x="117" y="45"/>
      <point x="78" y="57"/>
      <point x="60" y="74" type="curve" smooth="yes"/>
      <point x="55" y="79"/>
      <point x="49" y="87"/>
      <point x="41" y="87" type="curve" smooth="yes"/>
      <point x="29" y="87"/>
      <point x="17" y="76"/>
      <point x="17" y="62" type="curve" smooth="yes"/>
      <point x="17" y="55"/>
      <point x="22" y="46"/>
      <point x="31" y="37" type="curve" smooth="yes"/>
      <point x="53" y="15"/>
      <point x="98" y="-1"/>
    </contour>
  </outline>
</glyph>
<glyph name="seven" format="2">
  <advance width="379"/>
  <unicode hex="0037"/>
  <outline>
    <contour>
      <point x="72" y="0" type="curve" smooth="yes"/>
      <point x="84" y="0"/>
      <point x="98" y="8"/>
      <point x="107" y="26" type="curve" smooth="yes"/>
      <point x="353" y="533" type="line" smooth="yes"/>
      <point x="362" y="551"/>
      <point x="353" y="568.0"/>
      <point x="334" y="568" type="curve" smooth="yes"/>
      <point x="93" y="568" type="line" smooth="yes"/>
      <point x="75" y="568"/>
      <point x="67" y="557"/>
      <point x="68" y="546" type="curve" smooth="yes"/>
      <point x="69" y="534"/>
      <point x="78" y="523"/>
      <point x="96" y="523" type="curve" smooth="yes"/>
      <point x="322" y="523" type="line"/>
      <point x="306" y="550" type="line"/>
      <point x="61" y="46" type="line" smooth="yes"/>
      <point x="46" y="15"/>
      <point x="59" y="0"/>
    </contour>
  </outline>
</glyph>
<glyph name="eight" format="2">
  <advance width="380"/>
  <unicode hex="0038"/>
  <outline>
    <contour>
      <point x="166" y="45" type="curve" smooth="yes"/>
      <point x="116" y="45"/>
      <point x="78" y="73"/>
      <point x="78" y="137" type="curve" smooth="yes"/>
      <point x="78" y="201"/>
      <point x="111" y="235"/>
      <point x="188" y="291" type="curve" smooth="yes"/>
      <point x="265" y="347"/>
      <point x="348" y="402"/>
      <point x="348" y="464" type="curve" smooth="yes"/>
      <point x="348" y="547"/>
      <point x="276" y="568"/>
      <point x="209" y="568" type="curve" smooth="yes"/>
      <point x="136" y="568"/>
      <point x="58" y="533"/>
      <point x="58" y="448" type="curve" smooth="yes"/>
      <point x="58" y="387"/>
      <point x="127" y="329"/>
      <point x="154" y="302" type="curve" smooth="yes"/>
      <point x="169" y="287" type="line" smooth="yes"/>
      <point x="205" y="251"/>
      <point x="263" y="194"/>
      <point x="263" y="149" type="curve" smooth="yes"/>
      <point x="263" y="77"/>
      <point x="224" y="45"/>
    </contour>
    <contour>
      <point x="163" y="-1" type="curve" smooth="yes"/>
      <point x="251" y="-1"/>
      <point x="313" y="58"/>
      <point x="313" y="149" type="curve" smooth="yes"/>
      <point x="313" y="199"/>
      <point x="268" y="255"/>
      <point x="211" y="310" type="curve" smooth="yes"/>
      <point x="181" y="339" type="line" smooth="yes"/>
      <point x="157" y="363"/>
      <point x="108" y="406"/>
      <point x="108" y="451" type="curve" smooth="yes"/>
      <point x="108" y="504"/>
      <point x="162" y="522"/>
      <point x="206" y="522" type="curve" smooth="yes"/>
      <point x="255" y="522"/>
      <point x="298" y="518"/>
      <point x="298" y="465" type="curve" smooth="yes"/>
      <point x="298" y="421"/>
      <point x="227" y="376"/>
      <point x="157" y="325" type="curve" smooth="yes"/>
      <point x="60" y="254"/>
      <point x="28" y="209"/>
      <point x="28" y="133" type="curve" smooth="yes"/>
      <point x="28" y="54"/>
      <point x="87" y="-1"/>
    </contour>
  </outline>
</glyph>
<glyph name="nine" format="2">
  <advance width="355"/>
  <unicode hex="0039"/>
  <outline>
    <contour>
      <point x="252" y="0" type="curve" smooth="yes"/>
      <point x="263" y="0"/>
      <point x="274" y="6"/>
      <point x="276" y="21" type="curve" smooth="yes"/>
      <point x="331" y="541" type="line" smooth="yes"/>
      <point x="333" y="559"/>
      <point x="321" y="568"/>
      <point x="307" y="568" type="curve" smooth="yes"/>
      <point x="296" y="568"/>
      <point x="284" y="561"/>
      <point x="282" y="546" type="curve" smooth="yes"/>
      <point x="227" y="26" type="line" smooth="yes"/>
      <point x="225" y="10"/>
      <point x="238" y="0"/>
    </contour>
    <contour>
      <point x="165" y="218" type="curve" smooth="yes"/>
      <point x="209" y="218"/>
      <point x="246" y="257"/>
      <point x="269" y="304" type="curve"/>
      <point x="287" y="466" type="line"/>
      <point x="281" y="466" type="line"/>
      <point x="275.0" y="414.0"/>
      <point x="233.0" y="264.0"/>
      <point x="166" y="264" type="curve" smooth="yes"/>
      <point x="114" y="264"/>
      <point x="95" y="330"/>
      <point x="102" y="395" type="curve" smooth="yes"/>
      <point x="111" y="480"/>
      <point x="152" y="522"/>
      <point x="201" y="522" type="curve" smooth="yes"/>
      <point x="242" y="522"/>
      <point x="276" y="509"/>
      <point x="289" y="489" type="curve"/>
      <point x="294" y="535" type="line"/>
      <point x="276" y="555"/>
      <point x="241" y="568"/>
      <point x="202" y="568" type="curve" smooth="yes"/>
      <point x="128" y="568"/>
      <point x="64" y="513"/>
      <point x="52" y="398" type="curve" smooth="yes"/>
      <point x="43" y="310"/>
      <point x="78" y="218"/>
    </contour>
  </outline>
</glyph>
<glyph name="colon" format="2">
  <advance width="212"/>
  <unicode hex="003A"/>
  <outline>
    <contour>
      <point x="74" y="-1" type="curve" smooth="yes"/>
      <point x="97" y="-1"/>
      <point x="114" y="17"/>
      <point x="114" y="40" type="curve" smooth="yes"/>
      <point x="114" y="62"/>
      <point x="97" y="79"/>
      <point x="74" y="79" type="curve" smooth="yes"/>
      <point x="51" y="79"/>
      <point x="34" y="62"/>
      <point x="34" y="40" type="curve" smooth="yes"/>
      <point x="34" y="17"/>
      <point x="51" y="-1"/>
    </contour>
    <contour>
      <point x="102" y="274" type="curve" smooth="yes"/>
      <point x="125" y="274"/>
      <point x="142" y="292"/>
      <point x="142" y="315" type="curve" smooth="yes"/>
      <point x="142" y="337"/>
      <point x="125" y="354"/>
      <point x="102" y="354" type="curve" smooth="yes"/>
      <point x="79" y="354"/>
      <point x="62" y="337"/>
      <point x="62" y="315" type="curve" smooth="yes"/>
      <point x="62" y="292"/>
      <point x="79" y="274"/>
    </contour>
  </outline>
</glyph>
<glyph name="greater" format="2">
  <advance width="426"/>
  <unicode hex="003E"/>
  <guideline x="131" y="333" angle="0" identifier="GqRMvt6B8x"/>
  <outline>
    <contour>
      <point x="110" y="96" type="curve" smooth="yes"/>
      <point x="332" y="198" type="line" smooth="yes"/>
      <point x="340" y="202"/>
      <point x="346" y="210"/>
      <point x="346" y="218" type="curve" smooth="yes"/>
      <point x="346" y="225"/>
      <point x="344" y="232"/>
      <point x="336" y="237" type="curve" smooth="yes"/>
      <point x="157" y="362" type="line" smooth="yes"/>
      <point x="142" y="373"/>
      <point x="129" y="373"/>
      <point x="120" y="364" type="curve" smooth="yes"/>
      <point x="111" y="353"/>
      <point x="113" y="338"/>
      <point x="128" y="327" type="curve" smooth="yes"/>
      <point x="303" y="205" type="line"/>
      <point x="306" y="235" type="line"/>
      <point x="98" y="139" type="line" smooth="yes"/>
      <point x="78" y="130"/>
      <point x="74" y="120"/>
      <point x="77" y="108" type="curve" smooth="yes"/>
      <point x="80" y="98"/>
      <point x="91" y="87"/>
    </contour>
  </outline>
</glyph>
<glyph name="C" format="2">
  <advance width="480"/>
  <unicode hex="0043"/>
  <outline>
    <contour>
      <point x="207" y="-5" type="curve" smooth="yes"/>
      <point x="297" y="-5"/>
      <point x="375" y="63"/>
      <point x="406" y="125" type="curve" smooth="yes"/>
      <point x="419" y="151"/>
      <point x="421" y="165"/>
      <point x="404" y="174" type="curve" smooth="yes"/>
      <point x="387" y="183"/>
      <point x="375" y="172"/>
      <point x="364" y="149" type="curve" smooth="yes"/>
      <point x="338" y="99"/>
      <point x="284" y="41"/>
      <point x="203" y="41" type="curve" smooth="yes"/>
      <point x="105" y="41"/>
      <point x="66" y="153"/>
      <point x="99" y="334" type="curve" smooth="yes"/>
      <point x="130" y="502"/>
      <point x="207" y="609"/>
      <point x="303" y="609" type="curve" smooth="yes"/>
      <point x="351" y="609"/>
      <point x="390" y="572"/>
      <point x="411" y="557" type="curve" smooth="yes"/>
      <point x="421" y="549"/>
      <point x="439" y="542"/>
      <point x="452" y="557" type="curve" smooth="yes"/>
      <point x="465" y="572"/>
      <point x="457" y="587"/>
      <point x="448" y="595" type="curve" smooth="yes"/>
      <point x="420" y="620"/>
      <point x="378" y="655"/>
      <point x="300" y="655" type="curve" smooth="yes"/>
      <point x="182" y="655"/>
      <point x="86" y="535"/>
      <point x="49" y="340" type="curve" smooth="yes"/>
      <point x="8" y="127"/>
      <point x="68" y="-5"/>
    </contour>
  </outline>
</glyph>
<glyph name="D" format="2">
  <advance width="497"/>
  <unicode hex="0044"/>
  <outline>
    <contour>
      <point x="58" y="0" type="curve" smooth="yes"/>
      <point x="122" y="0" type="line" smooth="yes"/>
      <point x="321" y="0"/>
      <point x="429" y="128"/>
      <point x="453" y="340" type="curve" smooth="yes"/>
      <point x="474" y="526"/>
      <point x="369" y="650"/>
      <point x="181" y="650" type="curve" smooth="yes"/>
      <point x="125" y="650" type="line" smooth="yes"/>
      <point x="103" y="650"/>
      <point x="98" y="639"/>
      <point x="96" y="623" type="curve" smooth="yes"/>
      <point x="33" y="27" type="line" smooth="yes"/>
      <point x="31" y="12"/>
      <point x="40" y="0"/>
    </contour>
    <contour>
      <point x="85" y="46" type="line"/>
      <point x="144" y="604" type="line"/>
      <point x="188" y="604" type="line" smooth="yes"/>
      <point x="337" y="604"/>
      <point x="421" y="496"/>
      <point x="404" y="344" type="curve" smooth="yes"/>
      <point x="382" y="152"/>
      <point x="293" y="46"/>
      <point x="119" y="46" type="curve" smooth="yes"/>
    </contour>
  </outline>
</glyph>
<glyph name="E" format="2">
  <advance width="477"/>
  <unicode hex="0045"/>
  <outline>
    <contour>
      <point x="58" y="0" type="curve" smooth="yes"/>
      <point x="372" y="0" type="line" smooth="yes"/>
      <point x="392" y="0"/>
      <point x="399" y="12"/>
      <point x="399" y="24" type="curve" smooth="yes"/>
      <point x="399" y="36"/>
      <point x="392" y="46"/>
      <point x="372" y="46" type="curve" smooth="yes"/>
      <point x="86" y="46" type="line"/>
      <point x="144" y="604" type="line"/>
      <point x="436" y="604" type="line" smooth="yes"/>
      <point x="456" y="604"/>
      <point x="463" y="615"/>
      <point x="463" y="627" type="curve" smooth="yes"/>
      <point x="463" y="639"/>
      <point x="456" y="650"/>
      <point x="436" y="650" type="curve" smooth="yes"/>
      <point x="125" y="650" type="line" smooth="yes"/>
      <point x="103" y="650"/>
      <point x="98" y="639"/>
      <point x="96" y="623" type="curve" smooth="yes"/>
      <point x="33" y="27" type="line" smooth="yes"/>
      <point x="31" y="12"/>
      <point x="40" y="0"/>
    </contour>
    <contour>
      <point x="91" y="327" type="line"/>
      <point x="381" y="327" type="line" smooth="yes"/>
      <point x="401" y="327"/>
      <point x="411" y="338"/>
      <point x="411" y="350" type="curve" smooth="yes"/>
      <point x="411" y="362"/>
      <point x="403" y="373"/>
      <point x="383" y="373" type="curve" smooth="yes"/>
      <point x="96" y="373" type="line"/>
    </contour>
  </outline>
</glyph>
<glyph name="G" format="2">
  <advance width="508"/>
  <unicode hex="0047"/>
  <outline>
    <contour>
      <point x="184" y="-4" type="curve" smooth="yes"/>
      <point x="285" y="-4"/>
      <point x="370" y="95"/>
      <point x="434" y="289" type="curve"/>
      <point x="434" y="350" type="line"/>
      <point x="417" y="350"/>
      <point x="412" y="340"/>
      <point x="408" y="327" type="curve" smooth="yes"/>
      <point x="344" y="138"/>
      <point x="255" y="42"/>
      <point x="193" y="42" type="curve" smooth="yes"/>
      <point x="104" y="42"/>
      <point x="67" y="153"/>
      <point x="97" y="334" type="curve" smooth="yes"/>
      <point x="126" y="504"/>
      <point x="208" y="609"/>
      <point x="313" y="609" type="curve" smooth="yes"/>
      <point x="383" y="609"/>
      <point x="415" y="574"/>
      <point x="437" y="550" type="curve" smooth="yes"/>
      <point x="448" y="539"/>
      <point x="463" y="532"/>
      <point x="474" y="542" type="curve" smooth="yes"/>
      <point x="486" y="553"/>
      <point x="483" y="566"/>
      <point x="473" y="579" type="curve" smooth="yes"/>
      <point x="448" y="611"/>
      <point x="388" y="655"/>
      <point x="320" y="655" type="curve" smooth="yes"/>
      <point x="188" y="655"/>
      <point x="84" y="535"/>
      <point x="48" y="341" type="curve" smooth="yes"/>
      <point x="9" y="128"/>
      <point x="60" y="-4"/>
    </contour>
    <contour>
      <point x="403" y="0" type="curve" smooth="yes"/>
      <point x="426" y="-1"/>
      <point x="430" y="16"/>
      <point x="432" y="36" type="curve" smooth="yes"/>
      <point x="462" y="323" type="line" smooth="yes"/>
      <point x="464" y="340"/>
      <point x="451" y="350"/>
      <point x="434" y="350" type="curve"/>
      <point x="405" y="259" type="line"/>
      <point x="382" y="36" type="line" smooth="yes"/>
      <point x="380" y="15"/>
      <point x="383" y="1"/>
    </contour>
  </outline>
</glyph>
<glyph name="M" format="2">
  <advance width="814"/>
  <unicode hex="004D"/>
  <outline>
    <contour>
      <point x="-1" y="0" type="curve" smooth="yes"/>
      <point x="10" y="0"/>
      <point x="22" y="7"/>
      <point x="31" y="25" type="curve" smooth="yes"/>
      <point x="297" y="570" type="line"/>
      <point x="281" y="573" type="line"/>
      <point x="344" y="24" type="line" smooth="yes"/>
      <point x="345" y="14"/>
      <point x="349" y="0"/>
      <point x="372" y="0" type="curve" smooth="yes"/>
      <point x="391.0" y="0.0"/>
      <point x="399" y="17"/>
      <point x="403" y="24" type="curve" smooth="yes"/>
      <point x="668" y="572" type="line"/>
      <point x="652" y="575" type="line"/>
      <point x="716" y="24" type="line" smooth="yes"/>
      <point x="717" y="14"/>
      <point x="722" y="0"/>
      <point x="743" y="0" type="curve" smooth="yes"/>
      <point x="759" y="0"/>
      <point x="768" y="11"/>
      <point x="766" y="26" type="curve" smooth="yes"/>
      <point x="697" y="622" type="line" smooth="yes"/>
      <point x="695" y="638"/>
      <point x="693" y="650"/>
      <point x="665" y="650" type="curve" smooth="yes"/>
      <point x="650.0" y="650.0"/>
      <point x="643" y="635"/>
      <point x="638" y="624" type="curve" smooth="yes"/>
      <point x="372" y="76" type="line"/>
      <point x="388" y="73" type="line"/>
      <point x="324" y="631" type="line" smooth="yes"/>
      <point x="323" y="639"/>
      <point x="316" y="650"/>
      <point x="298" y="650" type="curve" smooth="yes"/>
      <point x="281.0" y="650.0"/>
      <point x="275" y="639"/>
      <point x="268" y="625" type="curve" smooth="yes"/>
      <point x="-18" y="38" type="line" smooth="yes"/>
      <point x="-28" y="17"/>
      <point x="-20" y="0"/>
    </contour>
  </outline>
</glyph>
<glyph name="N" format="2">
  <advance width="517"/>
  <unicode hex="004E"/>
  <outline>
    <contour>
      <point x="58" y="0" type="curve" smooth="yes"/>
      <point x="80" y="0"/>
      <point x="82" y="16"/>
      <point x="83" y="28" type="curve" smooth="yes"/>
      <point x="142" y="590" type="line"/>
      <point x="121" y="586" type="line"/>
      <point x="368" y="18" type="line" smooth="yes"/>
      <point x="373" y="7"/>
      <point x="383" y="0"/>
      <point x="396" y="0" type="curve" smooth="yes"/>
      <point x="414" y="0"/>
      <point x="417" y="9"/>
      <point x="419" y="25" type="curve" smooth="yes"/>
      <point x="482" y="619" type="line" smooth="yes"/>
      <point x="484" y="637"/>
      <point x="480" y="650"/>
      <point x="461" y="650" type="curve" smooth="yes"/>
      <point x="441" y="650"/>
      <point x="434" y="639"/>
      <point x="432" y="623" type="curve" smooth="yes"/>
      <point x="374" y="75" type="line"/>
      <point x="395" y="79" type="line"/>
      <point x="156" y="630" type="line" smooth="yes"/>
      <point x="151" y="641"/>
      <point x="142" y="650"/>
      <point x="124" y="650" type="curve" smooth="yes"/>
      <point x="103" y="650"/>
      <point x="98" y="639"/>
      <point x="96" y="623" type="curve" smooth="yes"/>
      <point x="33" y="27" type="line" smooth="yes"/>
      <point x="31" y="12"/>
      <point x="40" y="0"/>
    </contour>
  </outline>
</glyph>
<glyph name="O" format="2">
  <advance width="484"/>
  <unicode hex="004F"/>
  <outline>
    <contour>
      <point x="209" y="-5" type="curve" smooth="yes"/>
      <point x="339.0" y="-5.0"/>
      <point x="417" y="114"/>
      <point x="440" y="347" type="curve" smooth="yes"/>
      <point x="458" y="521"/>
      <point x="387" y="655"/>
      <point x="271" y="655" type="curve" smooth="yes"/>
      <point x="142.0" y="655.0"/>
      <point x="64" y="532"/>
      <point x="41" y="299" type="curve" smooth="yes"/>
      <point x="23" y="125"/>
      <point x="94" y="-5"/>
    </contour>
    <contour>
      <point x="210" y="41" type="curve" smooth="yes"/>
      <point x="128.0" y="41"/>
      <point x="77" y="149"/>
      <point x="91" y="292" type="curve" smooth="yes"/>
      <point x="112" y="499"/>
      <point x="172" y="609"/>
      <point x="271" y="609" type="curve" smooth="yes"/>
      <point x="353.0" y="609.0"/>
      <point x="404" y="497"/>
      <point x="390" y="354" type="curve" smooth="yes"/>
      <point x="369" y="147"/>
      <point x="309" y="41"/>
    </contour>
  </outline>
</glyph>
<glyph name="Q" format="2">
  <advance width="484"/>
  <unicode hex="0051"/>
  <outline>
    <contour>
      <point x="209" y="-5" type="curve" smooth="yes"/>
      <point x="339" y="-5"/>
      <point x="417" y="114"/>
      <point x="440" y="347" type="curve" smooth="yes"/>
      <point x="458" y="521"/>
      <point x="387" y="655"/>
      <point x="271" y="655" type="curve" smooth="yes"/>
      <point x="142" y="655"/>
      <point x="64" y="532"/>
      <point x="41" y="299" type="curve" smooth="yes"/>
      <point x="23" y="125"/>
      <point x="94" y="-5"/>
    </contour>
    <contour>
      <point x="210" y="41" type="curve" smooth="yes"/>
      <point x="128" y="41"/>
      <point x="77" y="149"/>
      <point x="91" y="292" type="curve" smooth="yes"/>
      <point x="112" y="499"/>
      <point x="172" y="609"/>
      <point x="271" y="609" type="curve" smooth="yes"/>
      <point x="353" y="609"/>
      <point x="404" y="497"/>
      <point x="390" y="354" type="curve" smooth="yes"/>
      <point x="369" y="147"/>
      <point x="309" y="41"/>
    </contour>
    <contour>
      <point x="401" y="-20" type="curve" smooth="yes"/>
      <point x="414" y="-11"/>
      <point x="414" y="5"/>
      <point x="402" y="22" type="curve" smooth="yes"/>
      <point x="291" y="172" type="line" smooth="yes"/>
      <point x="276" y="194"/>
      <point x="259" y="200"/>
      <point x="246" y="188" type="curve" smooth="yes"/>
      <point x="235" y="179"/>
      <point x="237" y="162"/>
      <point x="250" y="144" type="curve" smooth="yes"/>
      <point x="360" y="-6" type="line" smooth="yes"/>
      <point x="373" y="-22"/>
      <point x="389" y="-28"/>
    </contour>
  </outline>
</glyph>
<glyph name="Y" format="2">
  <advance width="454"/>
  <unicode hex="0059"/>
  <outline>
    <contour>
      <point x="62" y="648" type="curve" smooth="yes"/>
      <point x="45" y="642"/>
      <point x="43" y="629"/>
      <point x="50" y="613" type="curve" smooth="yes"/>
      <point x="220" y="241" type="line"/>
      <point x="253" y="290" type="line"/>
      <point x="97" y="630" type="line" smooth="yes"/>
      <point x="92" y="642"/>
      <point x="81" y="655"/>
    </contour>
    <contour>
      <point x="76" y="6" type="curve" smooth="yes"/>
      <point x="87" y="-3"/>
      <point x="105" y="-3"/>
      <point x="114" y="12" type="curve" smooth="yes"/>
      <point x="465" y="609" type="line" smooth="yes"/>
      <point x="474" y="624"/>
      <point x="470" y="639"/>
      <point x="455" y="647" type="curve" smooth="yes"/>
      <point x="443" y="653"/>
      <point x="431" y="650"/>
      <point x="422" y="635" type="curve" smooth="yes"/>
      <point x="72" y="38" type="line" smooth="yes"/>
      <point x="65" y="26"/>
      <point x="66" y="13"/>
    </contour>
  </outline>
</glyph>
<glyph name="bracketleft" format="2">
  <advance width="325"/>
  <unicode hex="005B"/>
  <outline>
    <contour>
      <point x="25" y="-300" type="curve" smooth="yes"/>
      <point x="170" y="-300" type="line" smooth="yes"/>
      <point x="187" y="-300"/>
      <point x="195" y="-288"/>
      <point x="194" y="-277" type="curve" smooth="yes"/>
      <point x="194" y="-266"/>
      <point x="185" y="-255"/>
      <point x="167" y="-255" type="curve" smooth="yes"/>
      <point x="54" y="-255" type="line"/>
      <point x="146" y="605" type="line"/>
      <point x="266" y="605" type="line" smooth="yes"/>
      <point x="283" y="605"/>
      <point x="291" y="616"/>
      <point x="291" y="627" type="curve" smooth="yes"/>
      <point x="291" y="638"/>
      <point x="282.0" y="650.0"/>
      <point x="263" y="650" type="curve" smooth="yes"/>
      <point x="125" y="650" type="line" smooth="yes"/>
      <point x="106.0" y="650.0"/>
      <point x="98" y="639"/>
      <point x="96" y="623" type="curve" smooth="yes"/>
      <point x="1" y="-273" type="line" smooth="yes"/>
      <point x="-1" y="-287"/>
      <point x="7" y="-300.0"/>
    </contour>
  </outline>
</glyph>
<glyph name="bracketright" format="2">
  <advance width="325"/>
  <unicode hex="005D"/>
  <outline>
    <contour>
      <point x="30" y="-300" type="curve" smooth="yes"/>
      <point x="165" y="-300" type="line" smooth="yes"/>
      <point x="187.0" y="-300.0"/>
      <point x="193" y="-289"/>
      <point x="195" y="-273" type="curve" smooth="yes"/>
      <point x="290" y="623" type="line" smooth="yes"/>
      <point x="292" y="638"/>
      <point x="284" y="650"/>
      <point x="264" y="650" type="curve" smooth="yes"/>
      <point x="123" y="650" type="line" smooth="yes"/>
      <point x="105" y="650"/>
      <point x="96" y="638"/>
      <point x="97" y="627" type="curve" smooth="yes"/>
      <point x="98" y="616"/>
      <point x="108" y="605"/>
      <point x="126" y="605" type="curve" smooth="yes"/>
      <point x="238" y="605" type="line"/>
      <point x="146" y="-255" type="line"/>
      <point x="27" y="-255" type="line" smooth="yes"/>
      <point x="10" y="-255"/>
      <point x="1" y="-266"/>
      <point x="1" y="-277" type="curve" smooth="yes"/>
      <point x="2" y="-289"/>
      <point x="11" y="-300"/>
    </contour>
  </outline>
</glyph>
<glyph name="f" format="2">
  <advance width="231"/>
  <unicode hex="0066"/>
  <outline>
    <contour>
      <point x="66" y="0" type="curve" smooth="yes"/>
      <point x="83" y="0"/>
      <point x="89" y="15"/>
      <point x="90" y="27" type="curve" smooth="yes"/>
      <point x="142" y="518" type="line" smooth="yes"/>
      <point x="148" y="573"/>
      <point x="168" y="604"/>
      <point x="199" y="604" type="curve" smooth="yes"/>
      <point x="222" y="604"/>
      <point x="240" y="594"/>
      <point x="250" y="577" type="curve" smooth="yes"/>
      <point x="255" y="569"/>
      <point x="267" y="564"/>
      <point x="280" y="571" type="curve" smooth="yes"/>
      <point x="292" y="578"/>
      <point x="295" y="592"/>
      <point x="290" y="600" type="curve" smooth="yes"/>
      <point x="271" y="630"/>
      <point x="241" y="650"/>
      <point x="200" y="650" type="curve" smooth="yes"/>
      <point x="144" y="650"/>
      <point x="102" y="609"/>
      <point x="93" y="527" type="curve" smooth="yes"/>
      <point x="40" y="28" type="line" smooth="yes"/>
      <point x="39" y="16"/>
      <point x="48" y="0"/>
    </contour>
    <contour>
      <point x="23" y="305" type="curve" smooth="yes"/>
      <point x="198" y="305" type="line" smooth="yes"/>
      <point x="218" y="305"/>
      <point x="222" y="316"/>
      <point x="222" y="328" type="curve" smooth="yes"/>
      <point x="222" y="340"/>
      <point x="215" y="350"/>
      <point x="195" y="350" type="curve" smooth="yes"/>
      <point x="23" y="350" type="line" smooth="yes"/>
      <point x="0" y="350"/>
      <point x="-5" y="340"/>
      <point x="-5" y="328" type="curve" smooth="yes"/>
      <point x="-5" y="316"/>
      <point x="3" y="305"/>
    </contour>
  </outline>
</glyph>
<glyph name="h" format="2">
  <advance width="346"/>
  <unicode hex="0068"/>
  <outline>
    <contour>
      <point x="45" y="0" type="curve" smooth="yes"/>
      <point x="58" y="0"/>
      <point x="70" y="7"/>
      <point x="72" y="23" type="curve" smooth="yes"/>
      <point x="136" y="623" type="line" smooth="yes"/>
      <point x="138" y="641"/>
      <point x="128" y="650"/>
      <point x="115" y="650" type="curve" smooth="yes"/>
      <point x="102" y="650"/>
      <point x="88" y="641"/>
      <point x="86" y="623" type="curve" smooth="yes"/>
      <point x="22" y="23" type="line" smooth="yes"/>
      <point x="20" y="8"/>
      <point x="32" y="0"/>
    </contour>
    <contour>
      <point x="239" y="0" type="curve"/>
      <point x="265" y="0"/>
      <point x="264" y="18"/>
      <point x="266" y="31" type="curve" smooth="yes"/>
      <point x="291" y="234" type="line" smooth="yes"/>
      <point x="300" y="308"/>
      <point x="270" y="354"/>
      <point x="213" y="354" type="curve" smooth="yes"/>
      <point x="158" y="354"/>
      <point x="115" y="305"/>
      <point x="77" y="226" type="curve"/>
      <point x="67" y="114" type="line"/>
      <point x="130" y="252"/>
      <point x="168" y="305"/>
      <point x="210" y="305" type="curve" smooth="yes"/>
      <point x="234" y="305"/>
      <point x="246" y="278"/>
      <point x="241" y="234" type="curve" smooth="yes"/>
      <point x="217" y="31" type="line" smooth="yes"/>
      <point x="215" y="15"/>
      <point x="217" y="0"/>
    </contour>
  </outline>
</glyph>
<glyph name="i" format="2">
  <advance width="161"/>
  <unicode hex="0069"/>
  <outline>
    <contour>
      <point x="47" y="0" type="curve" smooth="yes"/>
      <point x="59" y="0"/>
      <point x="72" y="10"/>
      <point x="74" y="28" type="curve" smooth="yes"/>
      <point x="105" y="320" type="line" smooth="yes"/>
      <point x="107" y="340"/>
      <point x="95" y="350"/>
      <point x="83" y="350" type="curve" smooth="yes"/>
      <point x="70" y="350"/>
      <point x="57" y="341"/>
      <point x="55" y="323" type="curve" smooth="yes"/>
      <point x="24" y="28" type="line" smooth="yes"/>
      <point x="22" y="9"/>
      <point x="34" y="0"/>
    </contour>
    <contour>
      <point x="92" y="428" type="curve" smooth="yes"/>
      <point x="113" y="428"/>
      <point x="130" y="446"/>
      <point x="130" y="467" type="curve" smooth="yes"/>
      <point x="130" y="489"/>
      <point x="112" y="505"/>
      <point x="92" y="505" type="curve" smooth="yes"/>
      <point x="71" y="505"/>
      <point x="53" y="488"/>
      <point x="53" y="467" type="curve" smooth="yes"/>
      <point x="53" y="445"/>
      <point x="72" y="428"/>
    </contour>
  </outline>
</glyph>
<glyph name="j" format="2">
  <advance width="161"/>
  <unicode hex="006A"/>
  <outline>
    <contour>
      <point x="-98" y="-299" type="curve" smooth="yes"/>
      <point x="-13" y="-299"/>
      <point x="47" y="-231"/>
      <point x="58" y="-122" type="curve" smooth="yes"/>
      <point x="105" y="320" type="line" smooth="yes"/>
      <point x="107" y="340"/>
      <point x="95" y="350"/>
      <point x="83" y="350" type="curve" smooth="yes"/>
      <point x="70" y="350"/>
      <point x="57" y="341"/>
      <point x="55" y="323" type="curve" smooth="yes"/>
      <point x="8" y="-122" type="line" smooth="yes"/>
      <point x="-1" y="-203"/>
      <point x="-41" y="-253"/>
      <point x="-97" y="-253" type="curve" smooth="yes"/>
      <point x="-125" y="-253"/>
      <point x="-153" y="-242"/>
      <point x="-170" y="-225" type="curve" smooth="yes"/>
      <point x="-178" y="-217"/>
      <point x="-189" y="-215"/>
      <point x="-198" y="-221" type="curve" smooth="yes"/>
      <point x="-213" y="-231"/>
      <point x="-214" y="-245"/>
      <point x="-201" y="-258" type="curve" smooth="yes"/>
      <point x="-177" y="-283"/>
      <point x="-137" y="-299"/>
    </contour>
    <contour>
      <point x="92" y="428" type="curve" smooth="yes"/>
      <point x="113" y="428"/>
      <point x="130" y="446"/>
      <point x="130" y="467" type="curve" smooth="yes"/>
      <point x="130" y="489"/>
      <point x="112" y="505"/>
      <point x="92" y="505" type="curve" smooth="yes"/>
      <point x="71" y="505"/>
      <point x="53" y="488"/>
      <point x="53" y="467" type="curve" smooth="yes"/>
      <point x="53" y="445"/>
      <point x="72" y="428"/>
    </contour>
  </outline>
</glyph>
<glyph name="m" format="2">
  <advance width="513"/>
  <unicode hex="006D"/>
  <outline>
    <contour>
      <point x="36" y="0" type="curve" smooth="yes"/>
      <point x="62" y="0"/>
      <point x="60" y="18"/>
      <point x="62" y="31" type="curve" smooth="yes"/>
      <point x="96" y="323" type="line" smooth="yes"/>
      <point x="98" y="340"/>
      <point x="95" y="350"/>
      <point x="78" y="350" type="curve" smooth="yes"/>
      <point x="58" y="350"/>
      <point x="48" y="341"/>
      <point x="46" y="323" type="curve" smooth="yes"/>
      <point x="13" y="31" type="line" smooth="yes"/>
      <point x="11" y="15"/>
      <point x="14" y="0"/>
    </contour>
    <contour>
      <point x="220" y="0" type="curve"/>
      <point x="246" y="0"/>
      <point x="245" y="18"/>
      <point x="247" y="31" type="curve" smooth="yes"/>
      <point x="272" y="234" type="line" smooth="yes"/>
      <point x="281" y="308"/>
      <point x="251" y="354"/>
      <point x="194" y="354" type="curve" smooth="yes"/>
      <point x="139" y="354"/>
      <point x="106" y="305"/>
      <point x="68" y="226" type="curve"/>
      <point x="58" y="114" type="line"/>
      <point x="121" y="252"/>
      <point x="149" y="305"/>
      <point x="191" y="305" type="curve" smooth="yes"/>
      <point x="215" y="305"/>
      <point x="227" y="278"/>
      <point x="222" y="234" type="curve" smooth="yes"/>
      <point x="198" y="31" type="line" smooth="yes"/>
      <point x="196" y="15"/>
      <point x="198" y="0"/>
    </contour>
    <contour>
      <point x="406" y="0" type="curve"/>
      <point x="432" y="0"/>
      <point x="431" y="18"/>
      <point x="433" y="31" type="curve" smooth="yes"/>
      <point x="458" y="234" type="line" smooth="yes"/>
      <point x="467" y="308"/>
      <point x="437" y="354"/>
      <point x="380" y="354" type="curve" smooth="yes"/>
      <point x="325" y="354"/>
      <point x="292" y="305"/>
      <point x="254" y="226" type="curve"/>
      <point x="244" y="114" type="line"/>
      <point x="307" y="252"/>
      <point x="335" y="305"/>
      <point x="377" y="305" type="curve" smooth="yes"/>
      <point x="401" y="305"/>
      <point x="413" y="278"/>
      <point x="408" y="234" type="curve" smooth="yes"/>
      <point x="384" y="31" type="line" smooth="yes"/>
      <point x="382" y="15"/>
      <point x="384" y="0"/>
    </contour>
  </outline>
</glyph>
<glyph name="n" format="2">
  <advance width="337"/>
  <unicode hex="006E"/>
  <outline>
    <contour>
      <point x="36" y="0" type="curve" smooth="yes"/>
      <point x="62" y="0"/>
      <point x="60" y="18"/>
      <point x="62" y="31" type="curve" smooth="yes"/>
      <point x="96" y="323" type="line" smooth="yes"/>
      <point x="98" y="340"/>
      <point x="95" y="350"/>
      <point x="78" y="350" type="curve" smooth="yes"/>
      <point x="58" y="350"/>
      <point x="48" y="341"/>
      <point x="46" y="323" type="curve" smooth="yes"/>
      <point x="13" y="31" type="line" smooth="yes"/>
      <point x="11" y="15"/>
      <point x="14" y="0"/>
    </contour>
    <contour>
      <point x="230" y="0" type="curve"/>
      <point x="256" y="0"/>
      <point x="255" y="18"/>
      <point x="257" y="31" type="curve" smooth="yes"/>
      <point x="282" y="234" type="line" smooth="yes"/>
      <point x="291" y="308"/>
      <point x="261" y="354"/>
      <point x="204" y="354" type="curve" smooth="yes"/>
      <point x="149" y="354"/>
      <point x="106" y="305"/>
      <point x="68" y="226" type="curve"/>
      <point x="58" y="114" type="line"/>
      <point x="121" y="252"/>
      <point x="159" y="305"/>
      <point x="201" y="305" type="curve" smooth="yes"/>
      <point x="225" y="305"/>
      <point x="237" y="278"/>
      <point x="232" y="234" type="curve" smooth="yes"/>
      <point x="208" y="31" type="line" smooth="yes"/>
      <point x="206" y="15"/>
      <point x="208" y="0"/>
    </contour>
  </outline>
</glyph>
<glyph name="q" format="2">
  <advance width="352"/>
  <unicode hex="0071"/>
  <outline>
    <contour>
      <point x="131" y="-1" type="curve" smooth="yes"/>
      <point x="175" y="-1"/>
      <point x="212" y="35"/>
      <point x="235" y="82" type="curve"/>
      <point x="249" y="244" type="line"/>
      <point x="234" y="159"/>
      <point x="188" y="45"/>
      <point x="132" y="45" type="curve" smooth="yes"/>
      <point x="80" y="45"/>
      <point x="61" y="108"/>
      <point x="68" y="173" type="curve" smooth="yes"/>
      <point x="77" y="258"/>
      <point x="118" y="308"/>
      <point x="167" y="308" type="curve" smooth="yes"/>
      <point x="195" y="308"/>
      <point x="236" y="296"/>
      <point x="255" y="267" type="curve"/>
      <point x="260" y="313" type="line"/>
      <point x="235" y="341"/>
      <point x="198" y="354"/>
      <point x="168" y="354" type="curve" smooth="yes"/>
      <point x="94" y="354"/>
      <point x="30" y="291"/>
      <point x="18" y="176" type="curve" smooth="yes"/>
      <point x="9" y="88"/>
      <point x="44" y="-1"/>
    </contour>
    <contour>
      <point x="216" y="-300" type="curve" smooth="yes"/>
      <point x="222" y="-300"/>
      <point x="228" y="-297"/>
      <point x="234" y="-292" type="curve" smooth="yes"/>
      <point x="322" y="-219" type="line" smooth="yes"/>
      <point x="334" y="-209"/>
      <point x="341" y="-197"/>
      <point x="341" y="-188" type="curve" smooth="yes"/>
      <point x="341" y="-176"/>
      <point x="332" y="-168"/>
      <point x="319" y="-168" type="curve" smooth="yes"/>
      <point x="311" y="-168"/>
      <point x="302" y="-171"/>
      <point x="290" y="-181" type="curve" smooth="yes"/>
      <point x="249" y="-215" type="line"/>
      <point x="306" y="320" type="line" smooth="yes"/>
      <point x="308" y="340"/>
      <point x="296" y="350"/>
      <point x="284" y="350" type="curve" smooth="yes"/>
      <point x="271" y="350"/>
      <point x="258" y="341"/>
      <point x="256" y="323" type="curve" smooth="yes"/>
      <point x="193" y="-272" type="line" smooth="yes"/>
      <point x="191" y="-291"/>
      <point x="203" y="-300"/>
    </contour>
  </outline>
</glyph>
<glyph name="r" format="2">
  <advance width="298"/>
  <unicode hex="0072"/>
  <outline>
    <contour>
      <point x="36" y="0" type="curve" smooth="yes"/>
      <point x="49" y="0"/>
      <point x="61" y="9"/>
      <point x="63" y="27" type="curve" smooth="yes"/>
      <point x="94" y="320" type="line" smooth="yes"/>
      <point x="96" y="340"/>
      <point x="85" y="350"/>
      <point x="72" y="350" type="curve" smooth="yes"/>
      <point x="60" y="350"/>
      <point x="46" y="341"/>
      <point x="44" y="323" type="curve" smooth="yes"/>
      <point x="13" y="27" type="line" smooth="yes"/>
      <point x="11" y="9"/>
      <point x="23" y="0"/>
    </contour>
    <contour>
      <point x="261" y="253" type="curve" smooth="yes"/>
      <point x="272" y="258"/>
      <point x="280" y="268"/>
      <point x="276" y="287" type="curve" smooth="yes"/>
      <point x="267" y="324"/>
      <point x="242" y="354"/>
      <point x="202" y="354" type="curve" smooth="yes"/>
      <point x="147" y="354"/>
      <point x="107" y="310"/>
      <point x="66" y="224" type="curve"/>
      <point x="56" y="114" type="line"/>
      <point x="118" y="251"/>
      <point x="157" y="305"/>
      <point x="199" y="305" type="curve" smooth="yes"/>
      <point x="216" y="305"/>
      <point x="224" y="284"/>
      <point x="229" y="262" type="curve" smooth="yes"/>
      <point x="231" y="251"/>
      <point x="249" y="247"/>
    </contour>
  </outline>
</glyph>
<glyph name="u" format="2">
  <advance width="336"/>
  <unicode hex="0075"/>
  <outline>
    <contour>
      <point x="100" y="-1" type="curve" smooth="yes"/>
      <point x="155" y="-1"/>
      <point x="197" y="49"/>
      <point x="239" y="120" type="curve"/>
      <point x="248" y="230" type="line"/>
      <point x="186" y="93"/>
      <point x="145" y="48"/>
      <point x="103" y="48" type="curve" smooth="yes"/>
      <point x="78" y="48"/>
      <point x="68" y="76"/>
      <point x="72" y="116" type="curve" smooth="yes"/>
      <point x="94" y="321" type="line" smooth="yes"/>
      <point x="96" y="335"/>
      <point x="94" y="350"/>
      <point x="72" y="350" type="curve" smooth="yes"/>
      <point x="50" y="350"/>
      <point x="47" y="334"/>
      <point x="46" y="323" type="curve" smooth="yes"/>
      <point x="22" y="116" type="line" smooth="yes"/>
      <point x="14" y="51"/>
      <point x="42" y="-1"/>
    </contour>
    <contour>
      <point x="228" y="0" type="curve" smooth="yes"/>
      <point x="248" y="0"/>
      <point x="257" y="9"/>
      <point x="259" y="27" type="curve" smooth="yes"/>
      <point x="290" y="321" type="line" smooth="yes"/>
      <point x="292" y="335"/>
      <point x="289" y="350"/>
      <point x="268" y="350" type="curve" smooth="yes"/>
      <point x="247" y="350"/>
      <point x="242" y="334"/>
      <point x="241" y="323" type="curve" smooth="yes"/>
      <point x="209" y="27" type="line" smooth="yes"/>
      <point x="207" y="10"/>
      <point x="211" y="0"/>
    </contour>
  </outline>
</glyph>
<glyph name="v" format="2">
  <advance width="280"/>
  <unicode hex="0076"/>
  <outline>
    <contour>
      <point x="73" y="21" type="line" smooth="yes"/>
      <point x="76" y="5"/>
      <point x="86" y="0"/>
      <point x="98" y="0" type="curve" smooth="yes"/>
      <point x="110" y="0"/>
      <point x="119" y="3"/>
      <point x="126" y="19" type="curve" smooth="yes"/>
      <point x="260" y="309" type="line" smooth="yes"/>
      <point x="271" y="334"/>
      <point x="259" y="350"/>
      <point x="241" y="350" type="curve" smooth="yes"/>
      <point x="231" y="350"/>
      <point x="221" y="345"/>
      <point x="213" y="328" type="curve" smooth="yes"/>
      <point x="100" y="73" type="line"/>
      <point x="109" y="71" type="line"/>
      <point x="62" y="328" type="line" smooth="yes"/>
      <point x="59" y="343"/>
      <point x="49" y="350"/>
      <point x="39" y="350" type="curve" smooth="yes"/>
      <point x="21" y="350"/>
      <point x="10" y="335"/>
      <point x="15" y="308" type="curve" smooth="yes"/>
    </contour>
  </outline>
</glyph>
<glyph name="w" format="2">
  <advance width="482"/>
  <unicode hex="0077"/>
  <outline>
    <contour>
      <point x="73" y="21" type="line" smooth="yes"/>
      <point x="76" y="5"/>
      <point x="87" y="0"/>
      <point x="98" y="0" type="curve" smooth="yes"/>
      <point x="110" y="0"/>
      <point x="119" y="3"/>
      <point x="126" y="19" type="curve" smooth="yes"/>
      <point x="239" y="271" type="line"/>
      <point x="228" y="273" type="line"/>
      <point x="275" y="21" type="line" smooth="yes"/>
      <point x="278" y="5"/>
      <point x="289" y="0"/>
      <point x="300" y="0" type="curve" smooth="yes"/>
      <point x="312" y="0"/>
      <point x="321" y="3"/>
      <point x="328" y="19" type="curve" smooth="yes"/>
      <point x="462" y="309" type="line" smooth="yes"/>
      <point x="473" y="334"/>
      <point x="461" y="348"/>
      <point x="443" y="350" type="curve" smooth="yes"/>
      <point x="433" y="351"/>
      <point x="423" y="345"/>
      <point x="419" y="336" type="curve" smooth="yes"/>
      <point x="304" y="73" type="line"/>
      <point x="312" y="71" type="line"/>
      <point x="263" y="333" type="line" smooth="yes"/>
      <point x="261" y="343"/>
      <point x="251" y="350"/>
      <point x="241" y="350" type="curve" smooth="yes"/>
      <point x="231" y="350"/>
      <point x="221" y="345"/>
      <point x="217" y="336" type="curve" smooth="yes"/>
      <point x="101" y="73" type="line"/>
      <point x="109" y="71" type="line"/>
      <point x="61" y="333" type="line" smooth="yes"/>
      <point x="59" y="343"/>
      <point x="49" y="350"/>
      <point x="39" y="350" type="curve" smooth="yes"/>
      <point x="21" y="350"/>
      <point x="10" y="335"/>
      <point x="15" y="308" type="curve" smooth="yes"/>
    </contour>
  </outline>
</glyph>
<glyph name="z" format="2">
  <advance width="327"/>
  <unicode hex="007A"/>
  <outline>
    <contour>
      <point x="38" y="0" type="curve" smooth="yes"/>
      <point x="235" y="0" type="line" smooth="yes"/>
      <point x="255" y="0"/>
      <point x="259" y="13"/>
      <point x="259" y="25" type="curve" smooth="yes"/>
      <point x="259" y="37"/>
      <point x="252" y="50"/>
      <point x="232" y="50" type="curve" smooth="yes"/>
      <point x="53" y="50" type="line"/>
      <point x="65" y="26" type="line"/>
      <point x="283" y="309" type="line" smooth="yes"/>
      <point x="298" y="329"/>
      <point x="284.0" y="350.0"/>
      <point x="264" y="350" type="curve" smooth="yes"/>
      <point x="69" y="350" type="line" smooth="yes"/>
      <point x="49" y="350"/>
      <point x="44" y="337"/>
      <point x="44" y="325" type="curve" smooth="yes"/>
      <point x="44" y="313"/>
      <point x="52" y="300"/>
      <point x="72" y="300" type="curve" smooth="yes"/>
      <point x="246" y="300" type="line"/>
      <point x="234" y="324" type="line"/>
      <point x="19" y="44" type="line" smooth="yes"/>
      <point x="5" y="26"/>
      <point x="19.0" y="0.0"/>
    </contour>
  </outline>
</glyph>
<glyph name="bar" format="2">
  <advance width="202"/>
  <unicode hex="007C"/>
  <outline>
    <contour>
      <point x="37" y="-300" type="curve" smooth="yes"/>
      <point x="59" y="-300"/>
      <point x="61" y="-285"/>
      <point x="62" y="-275" type="curve" smooth="yes"/>
      <point x="162" y="668" type="line" smooth="yes"/>
      <point x="165" y="690"/>
      <point x="153" y="700"/>
      <point x="140" y="700" type="curve" smooth="yes"/>
      <point x="128" y="700"/>
      <point x="114" y="690"/>
      <point x="112" y="672" type="curve" smooth="yes"/>
      <point x="11" y="-273" type="line" smooth="yes"/>
      <point x="9" y="-288"/>
      <point x="19" y="-300"/>
    </contour>
  </outline>
</glyph>
<glyph name="braceright" format="2">
  <advance width="370"/>
  <unicode hex="007D"/>
  <outline>
    <contour>
      <point x="52" y="-300" type="curve" smooth="yes"/>
      <point x="91" y="-288"/>
      <point x="166" y="-255"/>
      <point x="191" y="-205" type="curve" smooth="yes"/>
      <point x="220" y="-147"/>
      <point x="188" y="10"/>
      <point x="197" y="59" type="curve" smooth="yes"/>
      <point x="203" y="88"/>
      <point x="221" y="112"/>
      <point x="253" y="136" type="curve" smooth="yes"/>
      <point x="270" y="148"/>
      <point x="285" y="155"/>
      <point x="285" y="171" type="curve" smooth="yes"/>
      <point x="286" y="188"/>
      <point x="273" y="198"/>
      <point x="260" y="214" type="curve" smooth="yes"/>
      <point x="235" y="247"/>
      <point x="224" y="276"/>
      <point x="225" y="305" type="curve" smooth="yes"/>
      <point x="230" y="362"/>
      <point x="281" y="439"/>
      <point x="271" y="505" type="curve" smooth="yes"/>
      <point x="262" y="562"/>
      <point x="208" y="612"/>
      <point x="171" y="639" type="curve" smooth="yes"/>
      <point x="155" y="651"/>
      <point x="137" y="653"/>
      <point x="127" y="643" type="curve" smooth="yes"/>
      <point x="117" y="634"/>
      <point x="123" y="613"/>
      <point x="137" y="603" type="curve" smooth="yes"/>
      <point x="177" y="576"/>
      <point x="213" y="557"/>
      <point x="220" y="503" type="curve" smooth="yes"/>
      <point x="229" y="440"/>
      <point x="176" y="367"/>
      <point x="172" y="313" type="curve" smooth="yes"/>
      <point x="169" y="269"/>
      <point x="184" y="232"/>
      <point x="225" y="179" type="curve"/>
      <point x="172" y="140"/>
      <point x="152" y="109"/>
      <point x="145" y="65" type="curve" smooth="yes"/>
      <point x="137" y="13"/>
      <point x="173" y="-134"/>
      <point x="144" y="-188" type="curve" smooth="yes"/>
      <point x="125" y="-224"/>
      <point x="73" y="-239"/>
      <point x="29" y="-250" type="curve" smooth="yes"/>
      <point x="12" y="-255"/>
      <point x="-2" y="-270"/>
      <point x="1" y="-284" type="curve" smooth="yes"/>
      <point x="4" y="-299"/>
      <point x="30" y="-307"/>
    </contour>
  </outline>
</glyph>
<glyph name="periodcentered" format="2">
  <advance width="212"/>
  <unicode hex="00B7"/>
  <outline>
    <contour>
      <point x="105" y="193" type="curve" smooth="yes"/>
      <point x="128" y="193"/>
      <point x="145" y="211"/>
      <point x="145" y="234" type="curve" smooth="yes"/>
      <point x="145" y="256"/>
      <point x="128" y="273"/>
      <point x="105" y="273" type="curve" smooth="yes"/>
      <point x="82" y="273"/>
      <point x="65" y="256"/>
      <point x="65" y="234" type="curve" smooth="yes"/>
      <point x="65" y="211"/>
      <point x="82" y="193"/>
    </contour>
  </outline>
</glyph>
<glyph name="endash" format="2">
  <advance width="388"/>
  <unicode hex="2013"/>
  <outline>
    <contour>
      <point x="80" y="177" type="curve" smooth="yes"/>
      <point x="278" y="177" type="line" smooth="yes"/>
      <point x="297" y="177"/>
      <point x="309" y="185"/>
      <point x="309" y="200" type="curve" smooth="yes"/>
      <point x="309" y="215"/>
      <point x="298" y="223"/>
      <point x="280" y="223" type="curve" smooth="yes"/>
      <point x="82" y="223" type="line" smooth="yes"/>
      <point x="63" y="223"/>
      <point x="51" y="215"/>
      <point x="51" y="200" type="curve" smooth="yes"/>
      <point x="51" y="185"/>
      <point x="62" y="177"/>
    </contour>
  </outline>
</glyph>
<glyph name="emdash" format="2">
  <advance width="538"/>
  <unicode hex="2014"/>
  <outline>
    <contour>
      <point x="80" y="177" type="curve" smooth="yes"/>
      <point x="428" y="177" type="line" smooth="yes"/>
      <point x="447" y="177"/>
      <point x="459" y="185"/>
      <point x="459" y="200" type="curve" smooth="yes"/>
      <point x="459" y="215"/>
      <point x="448" y="223"/>
      <point x="430" y="223" type="curve" smooth="yes"/>
      <point x="82" y="223" type="line" smooth="yes"/>
      <point x="63" y="223"/>
      <point x="51" y="215"/>
      <point x="51" y="200" type="curve" smooth="yes"/>
      <point x="51" y="185"/>
      <point x="62" y="177"/>
    </contour>
  </outline>
</glyph>
<glyph name="bullet" format="2">
  <advance width="281"/>
  <unicode hex="2022"/>
  <outline>
    <contour>
      <point x="142" y="278" type="curve" smooth="yes"/>
      <point x="182" y="278"/>
      <point x="218" y="314"/>
      <point x="218" y="355" type="curve" smooth="yes"/>
      <point x="218" y="396"/>
      <point x="183" y="430"/>
      <point x="142" y="430" type="curve" smooth="yes"/>
      <point x="101" y="430"/>
      <point x="68" y="395"/>
      <point x="68" y="355" type="curve" smooth="yes"/>
      <point x="68" y="316"/>
      <point x="100" y="278"/>
    </contour>
  </outline>
</glyph>
<glyph name="ellipsis" format="2">
  <advance width="490"/>
  <unicode hex="2026"/>
  <outline>
    <contour>
      <point x="74" y="-1" type="curve" smooth="yes"/>
      <point x="97" y="-1"/>
      <point x="114" y="17"/>
      <point x="114" y="40" type="curve" smooth="yes"/>
      <point x="114" y="62"/>
      <point x="97" y="79"/>
      <point x="74" y="79" type="curve" smooth="yes"/>
      <point x="51" y="79"/>
      <point x="34" y="62"/>
      <point x="34" y="40" type="curve" smooth="yes"/>
      <point x="34" y="17"/>
      <point x="51" y="-1"/>
    </contour>
    <contour>
      <point x="214" y="-1" type="curve" smooth="yes"/>
      <point x="237" y="-1"/>
      <point x="254" y="17"/>
      <point x="254" y="40" type="curve" smooth="yes"/>
      <point x="254" y="62"/>
      <point x="237" y="79"/>
      <point x="214" y="79" type="curve" smooth="yes"/>
      <point x="191" y="79"/>
      <point x="174" y="62"/>
      <point x="174" y="40" type="curve" smooth="yes"/>
      <point x="174" y="17"/>
      <point x="191" y="-1"/>
    </contour>
    <contour>
      <point x="354" y="-1" type="curve" smooth="yes"/>
      <point x="377" y="-1"/>
      <point x="394" y="17"/>
      <point x="394" y="40" type="curve" smooth="yes"/>
      <point x="394" y="62"/>
      <point x="377" y="79"/>
      <point x="354" y="79" type="curve" smooth="yes"/>
      <point x="331" y="79"/>
      <point x="314" y="62"/>
      <point x="314" y="40" type="curve" smooth="yes"/>
      <point x="314" y="17"/>
      <point x="331" y="-1"/>
    </contour>
  </outline>
</glyph>
<glyph name="infinity" format="2">
  <advance width="701"/>
  <unicode hex="221E"/>
  <outline>
    <contour>
      <point x="142" y="80" type="curve" smooth="yes"/>
      <point x="212" y="80"/>
      <point x="279" y="128"/>
      <point x="342" y="193" type="curve"/>
      <point x="314" y="230" type="line"/>
      <point x="258" y="175"/>
      <point x="199" y="125"/>
      <point x="150" y="125" type="curve" smooth="yes"/>
      <point x="110" y="125"/>
      <point x="92" y="169"/>
      <point x="106" y="227" type="curve" smooth="yes"/>
      <point x="121" y="286"/>
      <point x="150" y="316"/>
      <point x="193" y="316" type="curve" smooth="yes"/>
      <point x="227" y="316"/>
      <point x="263" y="288"/>
      <point x="300" y="233" type="curve" smooth="yes"/>
      <point x="336" y="180" type="line" smooth="yes"/>
      <point x="381" y="114"/>
      <point x="429" y="80"/>
      <point x="476" y="80" type="curve" smooth="yes"/>
      <point x="553" y="80"/>
      <point x="602" y="125"/>
      <point x="622" y="215" type="curve" smooth="yes"/>
      <point x="637" y="281"/>
      <point x="616" y="361"/>
      <point x="535" y="361" type="curve" smooth="yes"/>
      <point x="465" y="361"/>
      <point x="398" y="313"/>
      <point x="335" y="248" type="curve"/>
      <point x="363" y="211" type="line"/>
      <point x="419" y="266"/>
      <point x="478" y="316"/>
      <point x="527" y="316" type="curve" smooth="yes"/>
      <point x="567" y="316"/>
      <point x="585" y="272"/>
      <point x="571" y="214" type="curve" smooth="yes"/>
      <point x="556" y="155"/>
      <point x="527" y="125"/>
      <point x="484" y="125" type="curve" smooth="yes"/>
      <point x="450" y="125"/>
      <point x="414" y="153"/>
      <point x="377" y="208" type="curve" smooth="yes"/>
      <point x="341" y="261" type="line" smooth="yes"/>
      <point x="296" y="327"/>
      <point x="248" y="361"/>
      <point x="201" y="361" type="curve" smooth="yes"/>
      <point x="124" y="361"/>
      <point x="75" y="316"/>
      <point x="55" y="226" type="curve" smooth="yes"/>
      <point x="40" y="160"/>
      <point x="61" y="80"/>
    </contour>
  </outline>
</glyph>
<glyph name="approxequal" format="2">
  <advance width="426"/>
  <unicode hex="2248"/>
  <outline>
    <contour>
      <point x="94" y="132" type="curve" smooth="yes"/>
      <point x="109" y="138"/>
      <point x="127" y="145"/>
      <point x="140" y="145" type="curve" smooth="yes"/>
      <point x="181" y="145"/>
      <point x="215" y="117"/>
      <point x="253" y="117" type="curve" smooth="yes"/>
      <point x="279" y="117"/>
      <point x="305" y="127"/>
      <point x="323" y="134" type="curve" smooth="yes"/>
      <point x="338" y="140"/>
      <point x="345" y="151"/>
      <point x="340" y="164" type="curve" smooth="yes"/>
      <point x="335" y="177"/>
      <point x="323" y="181"/>
      <point x="307" y="175" type="curve" smooth="yes"/>
      <point x="292" y="169"/>
      <point x="274" y="162"/>
      <point x="261" y="162" type="curve" smooth="yes"/>
      <point x="223" y="162"/>
      <point x="189" y="190"/>
      <point x="148" y="190" type="curve" smooth="yes"/>
      <point x="122" y="190"/>
      <point x="96" y="180"/>
      <point x="78" y="173" type="curve" smooth="yes"/>
      <point x="63" y="167"/>
      <point x="56" y="156"/>
      <point x="61" y="143" type="curve" smooth="yes"/>
      <point x="66" y="130"/>
      <point x="78" y="126"/>
    </contour>
    <contour>
      <point x="112" y="283" type="curve" smooth="yes"/>
      <point x="127" y="289"/>
      <point x="145" y="296"/>
      <point x="158" y="296" type="curve" smooth="yes"/>
      <point x="199" y="296"/>
      <point x="233" y="268"/>
      <point x="271" y="268" type="curve" smooth="yes"/>
      <point x="297" y="268"/>
      <point x="323" y="278"/>
      <point x="341" y="285" type="curve" smooth="yes"/>
      <point x="356" y="291"/>
      <point x="363" y="302"/>
      <point x="358" y="315" type="curve" smooth="yes"/>
      <point x="353" y="328"/>
      <point x="341" y="332"/>
      <point x="325" y="326" type="curve" smooth="yes"/>
      <point x="310" y="320"/>
      <point x="292" y="313"/>
      <point x="279" y="313" type="curve" smooth="yes"/>
      <point x="241" y="313"/>
      <point x="207" y="341"/>
      <point x="166" y="341" type="curve" smooth="yes"/>
      <point x="140" y="341"/>
      <point x="114" y="331"/>
      <point x="96" y="324" type="curve" smooth="yes"/>
      <point x="81" y="318"/>
      <point x="74" y="307"/>
      <point x="79" y="294" type="curve" smooth="yes"/>
      <point x="84" y="281"/>
      <point x="96" y="277"/>
    </contour>
  </outline>
</glyph>
<glyph name="greaterequal" format="2">
  <advance width="426"/>
  <unicode hex="2265"/>
  <outline>
    <contour>
      <point x="83" y="129" type="curve" smooth="yes"/>
      <point x="310" y="129" type="line" smooth="yes"/>
      <point x="328" y="129"/>
      <point x="337" y="140"/>
      <point x="337" y="152" type="curve" smooth="yes"/>
      <point x="337" y="163"/>
      <point x="328" y="174"/>
      <point x="310" y="174" type="curve" smooth="yes"/>
      <point x="83" y="174" type="line" smooth="yes"/>
      <point x="65" y="174"/>
      <point x="56" y="162"/>
      <point x="56" y="151" type="curve" smooth="yes"/>
      <point x="56" y="140"/>
      <point x="65" y="129"/>
    </contour>
    <contour>
      <point x="89" y="234" type="curve" smooth="yes"/>
      <point x="316" y="234" type="line" smooth="yes"/>
      <point x="334" y="234"/>
      <point x="343" y="245"/>
      <point x="343" y="257" type="curve" smooth="yes"/>
      <point x="343" y="263"/>
      <point x="340" y="270"/>
      <point x="334" y="274" type="curve" smooth="yes"/>
      <point x="148" y="392" type="line" smooth="yes"/>
      <point x="132" y="402"/>
      <point x="119" y="401"/>
      <point x="111" y="391" type="curve" smooth="yes"/>
      <point x="103" y="380"/>
      <point x="106" y="366"/>
      <point x="121" y="356" type="curve" smooth="yes"/>
      <point x="267" y="263" type="line"/>
      <point x="272" y="279" type="line"/>
      <point x="89" y="279" type="line" smooth="yes"/>
      <point x="71" y="279"/>
      <point x="62" y="267"/>
      <point x="62" y="256" type="curve" smooth="yes"/>
      <point x="62" y="245"/>
      <point x="71" y="234"/>
    </contour>
  </outline>
</glyph>
